<svg width="671" height="396" viewBox="0 0 671 396" fill="none" xmlns="http://www.w3.org/2000/svg">
<path d="M14.0144 0.319921C6.87031 -1.39748 0 4.01697 0 11.3646V255.036C0 259.506 2.62152 263.56 6.69777 265.395L13.1656 268.305L326.52 100.357L318.97 88.3961L312.386 75.9919C310.859 73.1165 308.173 71.0341 305.007 70.2732L14.0144 0.319921Z" fill="#0891B2"/>
<path d="M670.199 11.4016C670.199 4.04234 663.308 -1.37434 656.157 0.363645L368.279 70.3287C365.279 71.0579 362.705 72.9769 361.149 75.6441L348.238 97.7829C347.254 99.4706 346.721 101.384 346.692 103.337L343.089 346.099C343.035 349.679 340.118 352.554 336.537 352.554C332.954 352.554 330.036 349.676 329.986 346.094L326.52 100.357L13.1656 268.305L324.466 394.625C325.823 395.175 327.273 395.458 328.737 395.458H344.491C345.974 395.458 347.442 395.168 348.813 394.604L663.162 265.276C667.42 263.524 670.199 259.375 670.199 254.771V11.4016Z" fill="#06B6D4"/>
</svg>
