<svg width="565" height="108" viewBox="0 0 565 108" fill="none" xmlns="http://www.w3.org/2000/svg">
<path d="M-5.85616e-05 5.72205e-06H12.9599V81.648H-5.85616e-05V5.72205e-06ZM34.9666 60.264C35.3986 64.152 36.9106 67.176 39.5026 69.336C42.0946 71.496 45.2266 72.576 48.8986 72.576C52.1386 72.576 54.8386 71.928 56.9986 70.632C59.2306 69.264 61.1746 67.572 62.8306 65.556L72.1186 72.576C69.0946 76.32 65.7106 78.984 61.9666 80.568C58.2226 82.152 54.2986 82.944 50.1946 82.944C46.3066 82.944 42.6346 82.296 39.1786 81C35.7226 79.704 32.7346 77.868 30.2146 75.492C27.6946 73.116 25.6786 70.272 24.1666 66.96C22.7266 63.576 22.0066 59.832 22.0066 55.728C22.0066 51.624 22.7266 47.916 24.1666 44.604C25.6786 41.22 27.6946 38.34 30.2146 35.964C32.7346 33.588 35.7226 31.752 39.1786 30.456C42.6346 29.16 46.3066 28.512 50.1946 28.512C53.7946 28.512 57.0706 29.16 60.0226 30.456C63.0466 31.68 65.6026 33.48 67.6906 35.856C69.8506 38.232 71.5066 41.184 72.6586 44.712C73.8826 48.168 74.4946 52.164 74.4946 56.7V60.264H34.9666ZM61.5346 50.544C61.4626 46.728 60.2746 43.74 57.9706 41.58C55.6666 39.348 52.4626 38.232 48.3586 38.232C44.4706 38.232 41.3746 39.348 39.0706 41.58C36.8386 43.812 35.4706 46.8 34.9666 50.544H61.5346ZM136.726 29.808V77.004C136.726 81.684 136.15 85.896 134.998 89.64C133.846 93.456 132.046 96.66 129.598 99.252C127.222 101.916 124.198 103.968 120.526 105.408C116.854 106.848 112.498 107.568 107.458 107.568C102.634 107.568 98.0623 106.956 93.7423 105.732C89.4223 104.508 85.4263 102.276 81.7543 99.036L89.5303 88.452C92.1223 90.828 94.8223 92.664 97.6303 93.96C100.438 95.256 103.678 95.904 107.35 95.904C110.446 95.904 113.038 95.472 115.126 94.608C117.286 93.744 118.978 92.556 120.202 91.044C121.498 89.532 122.398 87.696 122.902 85.536C123.478 83.448 123.766 81.108 123.766 78.516V74.736H123.55C121.678 77.256 119.194 79.164 116.098 80.46C113.002 81.684 109.834 82.296 106.594 82.296C102.706 82.296 99.1783 81.612 96.0103 80.244C92.8423 78.804 90.1063 76.896 87.8023 74.52C85.5703 72.144 83.8423 69.336 82.6183 66.096C81.3943 62.856 80.7823 59.4 80.7823 55.728C80.7823 51.912 81.3583 48.348 82.5103 45.036C83.6623 41.724 85.3543 38.844 87.5863 36.396C89.8183 33.948 92.4823 32.04 95.5783 30.672C98.7463 29.232 102.346 28.512 106.378 28.512C110.05 28.512 113.47 29.232 116.638 30.672C119.806 32.112 122.326 34.416 124.198 37.584H124.414V29.808H136.726ZM109.078 40.176C106.774 40.176 104.686 40.572 102.814 41.364C100.942 42.084 99.3223 43.128 97.9543 44.496C96.6583 45.792 95.6143 47.412 94.8223 49.356C94.1023 51.228 93.7423 53.316 93.7423 55.62C93.7423 57.708 94.1023 59.652 94.8223 61.452C95.6143 63.252 96.6943 64.836 98.0623 66.204C99.4303 67.572 101.05 68.652 102.922 69.444C104.794 70.236 106.81 70.632 108.97 70.632C111.346 70.632 113.47 70.236 115.342 69.444C117.286 68.652 118.906 67.608 120.202 66.312C121.57 64.944 122.614 63.324 123.334 61.452C124.054 59.58 124.414 57.564 124.414 55.404C124.414 50.868 123.046 47.196 120.31 44.388C117.574 41.58 113.83 40.176 109.078 40.176ZM180.562 74.52H180.238C178.366 77.472 175.99 79.632 173.11 81C170.23 82.296 167.062 82.944 163.606 82.944C161.23 82.944 158.89 82.62 156.586 81.972C154.354 81.324 152.338 80.352 150.538 79.056C148.81 77.76 147.406 76.14 146.326 74.196C145.246 72.252 144.706 69.984 144.706 67.392C144.706 64.584 145.21 62.208 146.218 60.264C147.226 58.248 148.558 56.592 150.214 55.296C151.942 53.928 153.922 52.848 156.154 52.056C158.386 51.264 160.69 50.688 163.066 50.328C165.514 49.896 167.962 49.644 170.41 49.572C172.858 49.428 175.162 49.356 177.322 49.356H180.562V47.952C180.562 44.712 179.446 42.3 177.214 40.716C174.982 39.06 172.138 38.232 168.682 38.232C165.946 38.232 163.39 38.736 161.014 39.744C158.638 40.68 156.586 41.976 154.858 43.632L148.054 36.828C150.934 33.876 154.282 31.752 158.098 30.456C161.986 29.16 165.982 28.512 170.086 28.512C173.758 28.512 176.854 28.944 179.374 29.808C181.894 30.6 183.982 31.644 185.638 32.94C187.294 34.236 188.554 35.748 189.418 37.476C190.354 39.132 191.002 40.824 191.362 42.552C191.794 44.28 192.046 45.972 192.118 47.628C192.19 49.212 192.226 50.616 192.226 51.84V81.648H180.562V74.52ZM179.806 58.428H177.106C175.306 58.428 173.29 58.5 171.058 58.644C168.826 58.788 166.702 59.148 164.686 59.724C162.742 60.228 161.086 61.02 159.718 62.1C158.35 63.108 157.666 64.548 157.666 66.42C157.666 67.644 157.918 68.688 158.422 69.552C158.998 70.344 159.718 71.028 160.582 71.604C161.446 72.18 162.418 72.612 163.498 72.9C164.578 73.116 165.658 73.224 166.738 73.224C171.202 73.224 174.478 72.18 176.566 70.092C178.726 67.932 179.806 65.016 179.806 61.344V58.428ZM203.145 5.72205e-06H216.105V81.648H203.145V5.72205e-06Z" fill="#03193A"/>
<path d="M275.048 81.648H262.736V73.332H262.52C261.296 75.924 259.424 78.192 256.904 80.136C254.384 82.008 250.964 82.944 246.644 82.944C243.188 82.944 240.236 82.404 237.788 81.324C235.412 80.172 233.468 78.66 231.956 76.788C230.444 74.844 229.364 72.648 228.716 70.2C228.068 67.752 227.744 65.196 227.744 62.532V29.808H240.704V56.052C240.704 57.492 240.776 59.112 240.92 60.912C241.064 62.64 241.424 64.296 242 65.88C242.648 67.392 243.584 68.688 244.808 69.768C246.104 70.776 247.904 71.28 250.208 71.28C252.368 71.28 254.168 70.92 255.608 70.2C257.12 69.48 258.344 68.508 259.28 67.284C260.288 66.06 261.008 64.656 261.44 63.072C261.872 61.488 262.088 59.832 262.088 58.104V29.808H275.048V81.648ZM286.52 29.808H298.832V38.124H299.048C300.272 35.532 302.144 33.3 304.664 31.428C307.184 29.484 310.604 28.512 314.924 28.512C318.38 28.512 321.296 29.088 323.672 30.24C326.12 31.392 328.1 32.904 329.612 34.776C331.124 36.648 332.204 38.808 332.852 41.256C333.5 43.704 333.824 46.26 333.824 48.924V81.648H320.864V55.404C320.864 53.964 320.792 52.38 320.648 50.652C320.504 48.852 320.108 47.196 319.46 45.684C318.884 44.1 317.948 42.804 316.652 41.796C315.356 40.716 313.592 40.176 311.36 40.176C309.2 40.176 307.364 40.536 305.852 41.256C304.412 41.976 303.188 42.948 302.18 44.172C301.244 45.396 300.56 46.8 300.128 48.384C299.696 49.968 299.48 51.624 299.48 53.352V81.648H286.52V29.808ZM345.295 29.808H357.607V37.584H357.823C359.695 34.416 362.215 32.112 365.383 30.672C368.551 29.232 371.971 28.512 375.643 28.512C379.603 28.512 383.167 29.232 386.335 30.672C389.503 32.04 392.203 33.948 394.435 36.396C396.667 38.844 398.359 41.724 399.511 45.036C400.663 48.348 401.239 51.912 401.239 55.728C401.239 59.544 400.627 63.108 399.403 66.42C398.179 69.732 396.451 72.612 394.219 75.06C392.059 77.508 389.431 79.452 386.335 80.892C383.239 82.26 379.855 82.944 376.183 82.944C373.735 82.944 371.575 82.692 369.703 82.188C367.831 81.684 366.175 81.036 364.735 80.244C363.295 79.452 362.071 78.624 361.063 77.76C360.055 76.824 359.227 75.924 358.579 75.06H358.255V106.272H345.295V29.808ZM388.279 55.728C388.279 53.712 387.919 51.768 387.199 49.896C386.551 48.024 385.543 46.368 384.175 44.928C382.879 43.488 381.295 42.336 379.423 41.472C377.551 40.608 375.427 40.176 373.051 40.176C370.675 40.176 368.551 40.608 366.679 41.472C364.807 42.336 363.187 43.488 361.819 44.928C360.523 46.368 359.515 48.024 358.795 49.896C358.147 51.768 357.823 53.712 357.823 55.728C357.823 57.744 358.147 59.688 358.795 61.56C359.515 63.432 360.523 65.088 361.819 66.528C363.187 67.968 364.807 69.12 366.679 69.984C368.551 70.848 370.675 71.28 373.051 71.28C375.427 71.28 377.551 70.848 379.423 69.984C381.295 69.12 382.879 67.968 384.175 66.528C385.543 65.088 386.551 63.432 387.199 61.56C387.919 59.688 388.279 57.744 388.279 55.728ZM442.483 74.52H442.159C440.287 77.472 437.911 79.632 435.031 81C432.151 82.296 428.983 82.944 425.527 82.944C423.151 82.944 420.811 82.62 418.507 81.972C416.275 81.324 414.259 80.352 412.459 79.056C410.731 77.76 409.327 76.14 408.247 74.196C407.167 72.252 406.627 69.984 406.627 67.392C406.627 64.584 407.131 62.208 408.139 60.264C409.147 58.248 410.479 56.592 412.135 55.296C413.863 53.928 415.843 52.848 418.075 52.056C420.307 51.264 422.611 50.688 424.987 50.328C427.435 49.896 429.883 49.644 432.331 49.572C434.779 49.428 437.083 49.356 439.243 49.356H442.483V47.952C442.483 44.712 441.367 42.3 439.135 40.716C436.903 39.06 434.059 38.232 430.603 38.232C427.867 38.232 425.311 38.736 422.935 39.744C420.559 40.68 418.507 41.976 416.779 43.632L409.975 36.828C412.855 33.876 416.203 31.752 420.019 30.456C423.907 29.16 427.903 28.512 432.007 28.512C435.679 28.512 438.775 28.944 441.295 29.808C443.815 30.6 445.903 31.644 447.559 32.94C449.215 34.236 450.475 35.748 451.339 37.476C452.275 39.132 452.923 40.824 453.283 42.552C453.715 44.28 453.967 45.972 454.039 47.628C454.111 49.212 454.147 50.616 454.147 51.84V81.648H442.483V74.52ZM441.727 58.428H439.027C437.227 58.428 435.211 58.5 432.979 58.644C430.747 58.788 428.623 59.148 426.607 59.724C424.663 60.228 423.007 61.02 421.639 62.1C420.271 63.108 419.587 64.548 419.587 66.42C419.587 67.644 419.839 68.688 420.343 69.552C420.919 70.344 421.639 71.028 422.503 71.604C423.367 72.18 424.339 72.612 425.419 72.9C426.499 73.116 427.579 73.224 428.659 73.224C433.123 73.224 436.399 72.18 438.487 70.092C440.647 67.932 441.727 65.016 441.727 61.344V58.428ZM500.275 45.36C498.763 43.776 497.179 42.516 495.523 41.58C493.867 40.644 492.175 40.176 490.447 40.176C488.071 40.176 485.947 40.608 484.075 41.472C482.203 42.336 480.583 43.488 479.215 44.928C477.919 46.368 476.911 48.024 476.191 49.896C475.543 51.768 475.219 53.712 475.219 55.728C475.219 57.744 475.543 59.688 476.191 61.56C476.911 63.432 477.919 65.088 479.215 66.528C480.583 67.968 482.203 69.12 484.075 69.984C485.947 70.848 488.071 71.28 490.447 71.28C492.463 71.28 494.335 70.884 496.063 70.092C497.791 69.228 499.267 68.004 500.491 66.42L509.131 75.708C507.835 77.004 506.323 78.12 504.595 79.056C502.939 79.992 501.247 80.748 499.519 81.324C497.791 81.9 496.135 82.296 494.551 82.512C492.967 82.8 491.599 82.944 490.447 82.944C486.559 82.944 482.887 82.296 479.431 81C475.975 79.704 472.987 77.868 470.467 75.492C467.947 73.116 465.931 70.272 464.419 66.96C462.979 63.576 462.259 59.832 462.259 55.728C462.259 51.624 462.979 47.916 464.419 44.604C465.931 41.22 467.947 38.34 470.467 35.964C472.987 33.588 475.975 31.752 479.431 30.456C482.887 29.16 486.559 28.512 490.447 28.512C493.759 28.512 497.071 29.16 500.383 30.456C503.767 31.68 506.719 33.66 509.239 36.396L500.275 45.36ZM513.712 5.72205e-06H526.672V51.3L546.652 29.808H563.284L541.036 53.352L564.688 81.648H547.516L526.888 55.188H526.672V81.648H513.712V5.72205e-06Z" fill="#26AEAD"/>
</svg>
