<svg width="1785" height="655" viewBox="0 0 1785 655" fill="none" xmlns="http://www.w3.org/2000/svg">
<path d="M961.702 542.706H926.738V519.09H926.124C922.648 526.45 917.332 532.891 910.176 538.412C903.02 543.728 893.307 546.386 881.039 546.386C871.225 546.386 862.842 544.852 855.89 541.785C849.142 538.514 843.622 534.22 839.328 528.904C835.034 523.383 831.967 517.147 830.127 510.195C828.287 503.243 827.367 495.985 827.367 488.419V395.489H864.171V470.017C864.171 474.107 864.375 478.707 864.784 483.819C865.193 488.726 866.215 493.429 867.851 497.927C869.691 502.221 872.349 505.901 875.825 508.968C879.506 511.831 884.617 513.262 891.16 513.262C897.294 513.262 902.406 512.24 906.495 510.195C910.789 508.151 914.265 505.39 916.923 501.914C919.786 498.438 921.831 494.451 923.057 489.953C924.284 485.455 924.898 480.752 924.898 475.845V395.489H961.702V542.706ZM994.279 395.489H1029.24V419.105H1029.86C1033.33 411.744 1038.65 405.406 1045.8 400.089C1052.96 394.569 1062.67 391.809 1074.94 391.809C1084.76 391.809 1093.04 393.444 1099.78 396.716C1106.74 399.987 1112.36 404.281 1116.65 409.597C1120.95 414.913 1124.01 421.047 1125.85 427.999C1127.69 434.951 1128.61 442.21 1128.61 449.775V542.706H1091.81V468.177C1091.81 464.088 1091.61 459.59 1091.2 454.682C1090.79 449.571 1089.66 444.868 1087.82 440.574C1086.19 436.076 1083.53 432.395 1079.85 429.533C1076.17 426.466 1071.16 424.932 1064.82 424.932C1058.69 424.932 1053.47 425.955 1049.18 427.999C1045.09 430.044 1041.61 432.804 1038.75 436.28C1036.09 439.756 1034.15 443.743 1032.92 448.242C1031.7 452.74 1031.08 457.443 1031.08 462.35V542.706H994.279V395.489ZM1161.19 395.489H1196.16V417.571H1196.77C1202.09 408.575 1209.24 402.032 1218.24 397.943C1227.23 393.853 1236.95 391.809 1247.37 391.809C1258.62 391.809 1268.74 393.853 1277.74 397.943C1286.73 401.827 1294.4 407.246 1300.74 414.198C1307.08 421.15 1311.88 429.328 1315.16 438.734C1318.43 448.139 1320.06 458.26 1320.06 469.097C1320.06 479.934 1318.33 490.055 1314.85 499.461C1311.37 508.866 1306.47 517.045 1300.13 523.997C1293.99 530.949 1286.53 536.469 1277.74 540.559C1268.95 544.444 1259.34 546.386 1248.91 546.386C1241.96 546.386 1235.82 545.67 1230.51 544.239C1225.19 542.808 1220.49 540.968 1216.4 538.718C1212.31 536.469 1208.83 534.118 1205.97 531.664C1203.11 529.006 1200.76 526.45 1198.92 523.997H1198V612.633H1161.19V395.489ZM1283.26 469.097C1283.26 463.372 1282.24 457.852 1280.19 452.535C1278.35 447.219 1275.49 442.516 1271.6 438.427C1267.92 434.338 1263.43 431.066 1258.11 428.613C1252.79 426.159 1246.76 424.932 1240.01 424.932C1233.27 424.932 1227.23 426.159 1221.92 428.613C1216.6 431.066 1212 434.338 1208.12 438.427C1204.44 442.516 1201.57 447.219 1199.53 452.535C1197.69 457.852 1196.77 463.372 1196.77 469.097C1196.77 474.822 1197.69 480.343 1199.53 485.659C1201.57 490.975 1204.44 495.678 1208.12 499.767C1212 503.857 1216.6 507.128 1221.92 509.582C1227.23 512.035 1233.27 513.262 1240.01 513.262C1246.76 513.262 1252.79 512.035 1258.11 509.582C1263.43 507.128 1267.92 503.857 1271.6 499.767C1275.49 495.678 1278.35 490.975 1280.19 485.659C1282.24 480.343 1283.26 474.822 1283.26 469.097ZM1437.19 522.463H1436.27C1430.95 530.846 1424.2 536.98 1416.02 540.865C1407.85 544.546 1398.85 546.386 1389.03 546.386C1382.29 546.386 1375.64 545.466 1369.1 543.626C1362.76 541.785 1357.04 539.025 1351.92 535.345C1347.02 531.664 1343.03 527.064 1339.96 521.543C1336.9 516.023 1335.36 509.582 1335.36 502.221C1335.36 494.247 1336.79 487.499 1339.66 481.979C1342.52 476.254 1346.3 471.551 1351 467.87C1355.91 463.986 1361.53 460.919 1367.87 458.669C1374.21 456.42 1380.75 454.785 1387.5 453.762C1394.45 452.535 1401.41 451.82 1408.36 451.615C1415.31 451.206 1421.85 451.002 1427.99 451.002H1437.19V447.015C1437.19 437.814 1434.02 430.964 1427.68 426.466C1421.34 421.763 1413.26 419.412 1403.45 419.412C1395.68 419.412 1388.42 420.843 1381.67 423.705C1374.93 426.364 1369.1 430.044 1364.19 434.747L1344.87 415.425C1353.05 407.041 1362.56 401.01 1373.39 397.329C1384.43 393.649 1395.78 391.809 1407.44 391.809C1417.86 391.809 1426.66 393.035 1433.81 395.489C1440.97 397.738 1446.9 400.703 1451.6 404.383C1456.3 408.064 1459.88 412.358 1462.34 417.265C1464.99 421.967 1466.83 426.772 1467.86 431.68C1469.08 436.587 1469.8 441.392 1470 446.095C1470.21 450.593 1470.31 454.58 1470.31 458.056V542.706H1437.19V522.463ZM1435.04 476.765H1427.37C1422.26 476.765 1416.54 476.969 1410.2 477.378C1403.86 477.787 1397.83 478.809 1392.1 480.445C1386.58 481.876 1381.88 484.126 1377.99 487.193C1374.11 490.055 1372.17 494.145 1372.17 499.461C1372.17 502.937 1372.88 505.901 1374.31 508.355C1375.95 510.604 1377.99 512.547 1380.45 514.182C1382.9 515.818 1385.66 517.045 1388.73 517.863C1391.8 518.476 1394.86 518.783 1397.93 518.783C1410.61 518.783 1419.91 515.818 1425.84 509.889C1431.97 503.754 1435.04 495.474 1435.04 485.046V476.765ZM1601.31 439.654C1597.01 435.156 1592.51 431.577 1587.81 428.919C1583.11 426.261 1578.3 424.932 1573.4 424.932C1566.65 424.932 1560.62 426.159 1555.3 428.613C1549.98 431.066 1545.38 434.338 1541.5 438.427C1537.82 442.516 1534.96 447.219 1532.91 452.535C1531.07 457.852 1530.15 463.372 1530.15 469.097C1530.15 474.822 1531.07 480.343 1532.91 485.659C1534.96 490.975 1537.82 495.678 1541.5 499.767C1545.38 503.857 1549.98 507.128 1555.3 509.582C1560.62 512.035 1566.65 513.262 1573.4 513.262C1579.12 513.262 1584.44 512.138 1589.34 509.889C1594.25 507.435 1598.44 503.959 1601.92 499.461L1626.46 525.837C1622.77 529.517 1618.48 532.687 1613.57 535.345C1608.87 538.003 1604.07 540.15 1599.16 541.785C1594.25 543.421 1589.55 544.546 1585.05 545.159C1580.55 545.977 1576.67 546.386 1573.4 546.386C1562.35 546.386 1551.93 544.546 1542.11 540.865C1532.3 537.185 1523.81 531.971 1516.66 525.224C1509.5 518.476 1503.77 510.4 1499.48 500.994C1495.39 491.384 1493.35 480.752 1493.35 469.097C1493.35 457.443 1495.39 446.913 1499.48 437.507C1503.77 427.897 1509.5 419.718 1516.66 412.971C1523.81 406.223 1532.3 401.01 1542.11 397.329C1551.93 393.649 1562.35 391.809 1573.4 391.809C1582.8 391.809 1592.21 393.649 1601.61 397.329C1611.22 400.805 1619.61 406.428 1626.76 414.198L1601.31 439.654ZM1639.47 310.839H1676.27V456.522L1733.01 395.489H1780.24L1717.06 462.35L1784.23 542.706H1735.46L1676.88 467.564H1676.27V542.706H1639.47V310.839Z" fill="#0891B2"/>
<path d="M827.98 75.1338H864.784V307H827.98V75.1338ZM927.279 246.273C928.506 257.314 932.8 265.902 940.161 272.036C947.522 278.17 956.416 281.237 966.844 281.237C976.045 281.237 983.712 279.397 989.846 275.716C996.185 271.832 1001.71 267.027 1006.41 261.302L1032.78 281.237C1024.2 291.869 1014.59 299.435 1003.95 303.933C993.322 308.431 982.179 310.68 970.524 310.68C959.483 310.68 949.055 308.84 939.241 305.16C929.426 301.479 920.941 296.265 913.784 289.518C906.628 282.771 900.903 274.694 896.609 265.289C892.52 255.679 890.475 245.046 890.475 233.392C890.475 221.737 892.52 211.207 896.609 201.801C900.903 192.191 906.628 184.013 913.784 177.265C920.941 170.518 929.426 165.304 939.241 161.624C949.055 157.943 959.483 156.103 970.524 156.103C980.748 156.103 990.051 157.943 998.434 161.624C1007.02 165.1 1014.28 170.211 1020.21 176.959C1026.34 183.706 1031.05 192.089 1034.32 202.108C1037.79 211.923 1039.53 223.271 1039.53 236.152V246.273H927.279ZM1002.73 218.67C1002.52 207.833 999.15 199.348 992.607 193.214C986.064 186.875 976.965 183.706 965.31 183.706C954.269 183.706 945.477 186.875 938.934 193.214C932.595 199.552 928.711 208.038 927.279 218.67H1002.73ZM1216.26 159.783V293.812C1216.26 307.102 1214.62 319.064 1211.35 329.696C1208.08 340.533 1202.97 349.631 1196.02 356.992C1189.27 364.558 1180.68 370.385 1170.25 374.474C1159.83 378.564 1147.46 380.608 1133.14 380.608C1119.44 380.608 1106.46 378.87 1094.19 375.394C1081.92 371.918 1070.58 365.58 1060.15 356.379L1082.23 326.322C1089.59 333.07 1097.26 338.284 1105.23 341.964C1113.21 345.644 1122.41 347.485 1132.84 347.485C1141.63 347.485 1148.99 346.258 1154.92 343.804C1161.05 341.351 1165.86 337.977 1169.33 333.683C1173.01 329.389 1175.57 324.175 1177 318.041C1178.64 312.112 1179.45 305.466 1179.45 298.106V287.371H1178.84C1173.53 294.527 1166.47 299.946 1157.68 303.626C1148.89 307.102 1139.89 308.84 1130.69 308.84C1119.65 308.84 1109.63 306.898 1100.63 303.013C1091.64 298.924 1083.87 293.505 1077.32 286.758C1070.98 280.01 1066.08 272.036 1062.6 262.835C1059.13 253.634 1057.39 243.82 1057.39 233.392C1057.39 222.555 1059.02 212.434 1062.29 203.028C1065.57 193.623 1070.37 185.444 1076.71 178.492C1083.05 171.54 1090.61 166.122 1099.41 162.237C1108.4 158.148 1118.63 156.103 1130.08 156.103C1140.5 156.103 1150.22 158.148 1159.21 162.237C1168.21 166.326 1175.37 172.869 1180.68 181.866H1181.3V159.783H1216.26ZM1137.74 189.227C1131.2 189.227 1125.27 190.351 1119.95 192.6C1114.64 194.645 1110.04 197.61 1106.15 201.495C1102.47 205.175 1099.51 209.776 1097.26 215.296C1095.21 220.612 1094.19 226.542 1094.19 233.085C1094.19 239.015 1095.21 244.535 1097.26 249.647C1099.51 254.759 1102.58 259.257 1106.46 263.142C1110.34 267.027 1114.95 270.094 1120.26 272.343C1125.58 274.592 1131.3 275.716 1137.44 275.716C1144.18 275.716 1150.22 274.592 1155.53 272.343C1161.05 270.094 1165.65 267.129 1169.33 263.448C1173.22 259.564 1176.18 254.963 1178.23 249.647C1180.27 244.331 1181.3 238.606 1181.3 232.472C1181.3 219.59 1177.41 209.162 1169.64 201.188C1161.87 193.214 1151.24 189.227 1137.74 189.227ZM1340.74 286.758H1339.82C1334.51 295.141 1327.76 301.275 1319.58 305.16C1311.4 308.84 1302.41 310.68 1292.59 310.68C1285.84 310.68 1279.2 309.76 1272.66 307.92C1266.32 306.08 1260.59 303.32 1255.48 299.639C1250.57 295.959 1246.59 291.358 1243.52 285.838C1240.45 280.317 1238.92 273.876 1238.92 266.515C1238.92 258.541 1240.35 251.794 1243.21 246.273C1246.08 240.548 1249.86 235.845 1254.56 232.165C1259.47 228.28 1265.09 225.213 1271.43 222.964C1277.77 220.715 1284.31 219.079 1291.06 218.057C1298.01 216.83 1304.96 216.114 1311.91 215.91C1318.87 215.501 1325.41 215.296 1331.54 215.296H1340.74V211.309C1340.74 202.108 1337.57 195.258 1331.24 190.76C1324.9 186.057 1316.82 183.706 1307.01 183.706C1299.24 183.706 1291.98 185.137 1285.23 188C1278.48 190.658 1272.66 194.338 1267.75 199.041L1248.43 179.719C1256.61 171.336 1266.11 165.304 1276.95 161.624C1287.99 157.943 1299.34 156.103 1310.99 156.103C1321.42 156.103 1330.21 157.33 1337.37 159.783C1344.53 162.033 1350.46 164.997 1355.16 168.678C1359.86 172.358 1363.44 176.652 1365.89 181.559C1368.55 186.262 1370.39 191.067 1371.41 195.974C1372.64 200.881 1373.36 205.686 1373.56 210.389C1373.77 214.887 1373.87 218.874 1373.87 222.35V307H1340.74V286.758ZM1338.6 241.059H1330.93C1325.82 241.059 1320.09 241.264 1313.75 241.673C1307.42 242.082 1301.38 243.104 1295.66 244.74C1290.14 246.171 1285.44 248.42 1281.55 251.487C1277.67 254.35 1275.72 258.439 1275.72 263.755C1275.72 267.231 1276.44 270.196 1277.87 272.649C1279.51 274.899 1281.55 276.841 1284 278.477C1286.46 280.113 1289.22 281.339 1292.28 282.157C1295.35 282.771 1298.42 283.077 1301.49 283.077C1314.16 283.077 1323.47 280.113 1329.4 274.183C1335.53 268.049 1338.6 259.768 1338.6 249.34V241.059ZM1404.88 75.1338H1441.68V307H1404.88V75.1338Z" fill="#083344"/>
<path d="M14.0144 153.88C6.87031 152.162 0 157.577 0 164.924V365.066C0 369.536 2.6215 373.591 6.69773 375.425L13.1656 378.336L326.52 253.917L318.97 241.956L312.386 229.552C310.859 226.676 308.173 224.594 305.007 223.833L14.0144 153.88Z" fill="#0891B2"/>
<path d="M670.199 164.961C670.199 157.602 663.308 152.185 656.157 153.923L368.279 223.889C365.279 224.618 362.705 226.537 361.149 229.204L348.228 251.359C347.25 253.036 346.718 254.936 346.683 256.878L343.109 456.13C343.044 459.713 340.121 462.584 336.538 462.584C332.952 462.584 330.028 459.71 329.967 456.124L326.52 253.917L13.1656 378.336L324.466 504.656C325.823 505.206 327.273 505.489 328.737 505.489H344.559C345.998 505.489 347.423 505.216 348.759 504.684L663.04 379.623C667.362 377.903 670.199 373.721 670.199 369.069V164.961Z" fill="#06B6D4"/>
</svg>
