<svg width="1705" height="655" viewBox="0 0 1705 655" fill="none" xmlns="http://www.w3.org/2000/svg">
<path d="M881.702 542.706H846.738V519.09H846.124C842.648 526.45 837.332 532.891 830.176 538.412C823.02 543.728 813.307 546.386 801.039 546.386C791.225 546.386 782.842 544.852 775.89 541.785C769.142 538.514 763.622 534.22 759.328 528.904C755.034 523.383 751.967 517.147 750.127 510.195C748.287 503.243 747.367 495.985 747.367 488.419V395.489H784.171V470.017C784.171 474.107 784.375 478.707 784.784 483.819C785.193 488.726 786.215 493.429 787.851 497.927C789.691 502.221 792.349 505.901 795.825 508.968C799.506 511.831 804.617 513.262 811.16 513.262C817.294 513.262 822.406 512.24 826.495 510.195C830.789 508.151 834.265 505.39 836.923 501.914C839.786 498.438 841.831 494.451 843.057 489.953C844.284 485.455 844.898 480.752 844.898 475.845V395.489H881.702V542.706ZM914.279 395.489H949.243V419.105H949.857C953.332 411.744 958.649 405.406 965.805 400.089C972.961 394.569 982.674 391.809 994.942 391.809C1004.76 391.809 1013.04 393.444 1019.78 396.716C1026.74 399.987 1032.36 404.281 1036.65 409.597C1040.95 414.913 1044.01 421.047 1045.85 427.999C1047.69 434.951 1048.61 442.21 1048.61 449.775V542.706H1011.81V468.177C1011.81 464.088 1011.61 459.59 1011.2 454.682C1010.79 449.571 1009.66 444.868 1007.82 440.574C1006.19 436.076 1003.53 432.395 999.849 429.533C996.168 426.466 991.159 424.932 984.82 424.932C978.686 424.932 973.473 425.955 969.179 427.999C965.089 430.044 961.613 432.804 958.751 436.28C956.093 439.756 954.15 443.743 952.924 448.242C951.697 452.74 951.083 457.443 951.083 462.35V542.706H914.279V395.489ZM1081.19 395.489H1116.16V417.571H1116.77C1122.09 408.575 1129.24 402.032 1138.24 397.943C1147.23 393.853 1156.95 391.809 1167.37 391.809C1178.62 391.809 1188.74 393.853 1197.74 397.943C1206.73 401.827 1214.4 407.246 1220.74 414.198C1227.08 421.15 1231.88 429.328 1235.16 438.734C1238.43 448.139 1240.06 458.26 1240.06 469.097C1240.06 479.934 1238.33 490.055 1234.85 499.461C1231.37 508.866 1226.47 517.045 1220.13 523.997C1213.99 530.949 1206.53 536.469 1197.74 540.559C1188.95 544.444 1179.34 546.386 1168.91 546.386C1161.96 546.386 1155.82 545.67 1150.51 544.239C1145.19 542.808 1140.49 540.968 1136.4 538.718C1132.31 536.469 1128.83 534.118 1125.97 531.664C1123.11 529.006 1120.76 526.45 1118.92 523.997H1118V612.633H1081.19V395.489ZM1203.26 469.097C1203.26 463.372 1202.24 457.852 1200.19 452.535C1198.35 447.219 1195.49 442.516 1191.6 438.427C1187.92 434.338 1183.43 431.066 1178.11 428.613C1172.79 426.159 1166.76 424.932 1160.01 424.932C1153.27 424.932 1147.23 426.159 1141.92 428.613C1136.6 431.066 1132 434.338 1128.12 438.427C1124.44 442.516 1121.57 447.219 1119.53 452.535C1117.69 457.852 1116.77 463.372 1116.77 469.097C1116.77 474.822 1117.69 480.343 1119.53 485.659C1121.57 490.975 1124.44 495.678 1128.12 499.767C1132 503.857 1136.6 507.128 1141.92 509.582C1147.23 512.035 1153.27 513.262 1160.01 513.262C1166.76 513.262 1172.79 512.035 1178.11 509.582C1183.43 507.128 1187.92 503.857 1191.6 499.767C1195.49 495.678 1198.35 490.975 1200.19 485.659C1202.24 480.343 1203.26 474.822 1203.26 469.097ZM1357.19 522.463H1356.27C1350.95 530.846 1344.2 536.98 1336.02 540.865C1327.85 544.546 1318.85 546.386 1309.03 546.386C1302.29 546.386 1295.64 545.466 1289.1 543.626C1282.76 541.785 1277.04 539.025 1271.92 535.345C1267.02 531.664 1263.03 527.064 1259.96 521.543C1256.9 516.023 1255.36 509.582 1255.36 502.221C1255.36 494.247 1256.79 487.499 1259.66 481.979C1262.52 476.254 1266.3 471.551 1271 467.87C1275.91 463.986 1281.53 460.919 1287.87 458.669C1294.21 456.42 1300.75 454.785 1307.5 453.762C1314.45 452.535 1321.41 451.82 1328.36 451.615C1335.31 451.206 1341.85 451.002 1347.99 451.002H1357.19V447.015C1357.19 437.814 1354.02 430.964 1347.68 426.466C1341.34 421.763 1333.26 419.412 1323.45 419.412C1315.68 419.412 1308.42 420.843 1301.67 423.705C1294.93 426.364 1289.1 430.044 1284.19 434.747L1264.87 415.425C1273.05 407.041 1282.56 401.01 1293.39 397.329C1304.43 393.649 1315.78 391.809 1327.44 391.809C1337.86 391.809 1346.66 393.035 1353.81 395.489C1360.97 397.738 1366.9 400.703 1371.6 404.383C1376.3 408.064 1379.88 412.358 1382.34 417.265C1384.99 421.967 1386.83 426.772 1387.86 431.68C1389.08 436.587 1389.8 441.392 1390 446.095C1390.21 450.593 1390.31 454.58 1390.31 458.056V542.706H1357.19V522.463ZM1355.04 476.765H1347.37C1342.26 476.765 1336.54 476.969 1330.2 477.378C1323.86 477.787 1317.83 478.809 1312.1 480.445C1306.58 481.876 1301.88 484.126 1297.99 487.193C1294.11 490.055 1292.17 494.145 1292.17 499.461C1292.17 502.937 1292.88 505.901 1294.31 508.355C1295.95 510.604 1297.99 512.547 1300.45 514.182C1302.9 515.818 1305.66 517.045 1308.73 517.863C1311.8 518.476 1314.86 518.783 1317.93 518.783C1330.61 518.783 1339.91 515.818 1345.84 509.889C1351.97 503.754 1355.04 495.474 1355.04 485.046V476.765ZM1521.31 439.654C1517.01 435.156 1512.51 431.577 1507.81 428.919C1503.11 426.261 1498.3 424.932 1493.4 424.932C1486.65 424.932 1480.62 426.159 1475.3 428.613C1469.98 431.066 1465.38 434.338 1461.5 438.427C1457.82 442.516 1454.96 447.219 1452.91 452.535C1451.07 457.852 1450.15 463.372 1450.15 469.097C1450.15 474.822 1451.07 480.343 1452.91 485.659C1454.96 490.975 1457.82 495.678 1461.5 499.767C1465.38 503.857 1469.98 507.128 1475.3 509.582C1480.62 512.035 1486.65 513.262 1493.4 513.262C1499.12 513.262 1504.44 512.138 1509.34 509.889C1514.25 507.435 1518.44 503.959 1521.92 499.461L1546.46 525.837C1542.77 529.517 1538.48 532.687 1533.57 535.345C1528.87 538.003 1524.07 540.15 1519.16 541.785C1514.25 543.421 1509.55 544.546 1505.05 545.159C1500.55 545.977 1496.67 546.386 1493.4 546.386C1482.35 546.386 1471.93 544.546 1462.11 540.865C1452.3 537.185 1443.81 531.971 1436.66 525.224C1429.5 518.476 1423.77 510.4 1419.48 500.994C1415.39 491.384 1413.35 480.752 1413.35 469.097C1413.35 457.443 1415.39 446.913 1419.48 437.507C1423.77 427.897 1429.5 419.718 1436.66 412.971C1443.81 406.223 1452.3 401.01 1462.11 397.329C1471.93 393.649 1482.35 391.809 1493.4 391.809C1502.8 391.809 1512.21 393.649 1521.61 397.329C1531.22 400.805 1539.61 406.428 1546.76 414.198L1521.31 439.654ZM1559.47 310.839H1596.27V456.522L1653.01 395.489H1700.24L1637.06 462.35L1704.23 542.706H1655.46L1596.88 467.564H1596.27V542.706H1559.47V310.839Z" fill="#0891B2"/>
<path d="M747.98 75.1338H784.784V307H747.98V75.1338ZM847.279 246.273C848.506 257.314 852.8 265.902 860.161 272.036C867.522 278.17 876.416 281.237 886.844 281.237C896.045 281.237 903.712 279.397 909.846 275.716C916.185 271.832 921.705 267.027 926.408 261.302L952.785 281.237C944.197 291.869 934.587 299.435 923.955 303.933C913.322 308.431 902.179 310.68 890.524 310.68C879.483 310.68 869.055 308.84 859.241 305.16C849.426 301.479 840.941 296.265 833.784 289.518C826.628 282.771 820.903 274.694 816.609 265.289C812.52 255.679 810.475 245.046 810.475 233.392C810.475 221.737 812.52 211.207 816.609 201.801C820.903 192.191 826.628 184.013 833.784 177.265C840.941 170.518 849.426 165.304 859.241 161.624C869.055 157.943 879.483 156.103 890.524 156.103C900.748 156.103 910.051 157.943 918.434 161.624C927.022 165.1 934.28 170.211 940.21 176.959C946.344 183.706 951.047 192.089 954.318 202.108C957.794 211.923 959.532 223.271 959.532 236.152V246.273H847.279ZM922.728 218.67C922.523 207.833 919.15 199.348 912.607 193.214C906.064 186.875 896.965 183.706 885.31 183.706C874.269 183.706 865.477 186.875 858.934 193.214C852.595 199.552 848.711 208.038 847.279 218.67H922.728ZM1136.26 159.783V293.812C1136.26 307.102 1134.62 319.064 1131.35 329.696C1128.08 340.533 1122.97 349.631 1116.02 356.992C1109.27 364.558 1100.68 370.385 1090.25 374.474C1079.83 378.564 1067.46 380.608 1053.14 380.608C1039.44 380.608 1026.46 378.87 1014.19 375.394C1001.92 371.918 990.576 365.58 980.148 356.379L1002.23 326.322C1009.59 333.07 1017.26 338.284 1025.23 341.964C1033.21 345.644 1042.41 347.485 1052.84 347.485C1061.63 347.485 1068.99 346.258 1074.92 343.804C1081.05 341.351 1085.86 337.977 1089.33 333.683C1093.01 329.389 1095.57 324.175 1097 318.041C1098.64 312.112 1099.45 305.466 1099.45 298.106V287.371H1098.84C1093.53 294.527 1086.47 299.946 1077.68 303.626C1068.89 307.102 1059.89 308.84 1050.69 308.84C1039.65 308.84 1029.63 306.898 1020.63 303.013C1011.64 298.924 1003.87 293.505 997.323 286.758C990.985 280.01 986.078 272.036 982.602 262.835C979.126 253.634 977.388 243.82 977.388 233.392C977.388 222.555 979.023 212.434 982.295 203.028C985.566 193.623 990.371 185.444 996.71 178.492C1003.05 171.54 1010.61 166.122 1019.41 162.237C1028.4 158.148 1038.63 156.103 1050.08 156.103C1060.5 156.103 1070.22 158.148 1079.21 162.237C1088.21 166.326 1095.37 172.869 1100.68 181.866H1101.3V159.783H1136.26ZM1057.74 189.227C1051.2 189.227 1045.27 190.351 1039.95 192.6C1034.64 194.645 1030.04 197.61 1026.15 201.495C1022.47 205.175 1019.51 209.776 1017.26 215.296C1015.21 220.612 1014.19 226.542 1014.19 233.085C1014.19 239.015 1015.21 244.535 1017.26 249.647C1019.51 254.759 1022.58 259.257 1026.46 263.142C1030.34 267.027 1034.95 270.094 1040.26 272.343C1045.58 274.592 1051.3 275.716 1057.44 275.716C1064.18 275.716 1070.22 274.592 1075.53 272.343C1081.05 270.094 1085.65 267.129 1089.33 263.448C1093.22 259.564 1096.18 254.963 1098.23 249.647C1100.27 244.331 1101.3 238.606 1101.3 232.472C1101.3 219.59 1097.41 209.162 1089.64 201.188C1081.87 193.214 1071.24 189.227 1057.74 189.227ZM1260.74 286.758H1259.82C1254.51 295.141 1247.76 301.275 1239.58 305.16C1231.4 308.84 1222.41 310.68 1212.59 310.68C1205.84 310.68 1199.2 309.76 1192.66 307.92C1186.32 306.08 1180.59 303.32 1175.48 299.639C1170.57 295.959 1166.59 291.358 1163.52 285.838C1160.45 280.317 1158.92 273.876 1158.92 266.515C1158.92 258.541 1160.35 251.794 1163.21 246.273C1166.08 240.548 1169.86 235.845 1174.56 232.165C1179.47 228.28 1185.09 225.213 1191.43 222.964C1197.77 220.715 1204.31 219.079 1211.06 218.057C1218.01 216.83 1224.96 216.114 1231.91 215.91C1238.87 215.501 1245.41 215.296 1251.54 215.296H1260.74V211.309C1260.74 202.108 1257.57 195.258 1251.24 190.76C1244.9 186.057 1236.82 183.706 1227.01 183.706C1219.24 183.706 1211.98 185.137 1205.23 188C1198.48 190.658 1192.66 194.338 1187.75 199.041L1168.43 179.719C1176.61 171.336 1186.11 165.304 1196.95 161.624C1207.99 157.943 1219.34 156.103 1230.99 156.103C1241.42 156.103 1250.21 157.33 1257.37 159.783C1264.53 162.033 1270.46 164.997 1275.16 168.678C1279.86 172.358 1283.44 176.652 1285.89 181.559C1288.55 186.262 1290.39 191.067 1291.41 195.974C1292.64 200.881 1293.36 205.686 1293.56 210.389C1293.77 214.887 1293.87 218.874 1293.87 222.35V307H1260.74V286.758ZM1258.6 241.059H1250.93C1245.82 241.059 1240.09 241.264 1233.75 241.673C1227.42 242.082 1221.38 243.104 1215.66 244.74C1210.14 246.171 1205.44 248.42 1201.55 251.487C1197.67 254.35 1195.72 258.439 1195.72 263.755C1195.72 267.231 1196.44 270.196 1197.87 272.649C1199.51 274.899 1201.55 276.841 1204 278.477C1206.46 280.113 1209.22 281.339 1212.28 282.157C1215.35 282.771 1218.42 283.077 1221.49 283.077C1234.16 283.077 1243.47 280.113 1249.4 274.183C1255.53 268.049 1258.6 259.768 1258.6 249.34V241.059ZM1324.88 75.1338H1361.68V307H1324.88V75.1338Z" fill="#083344"/>
<path d="M14.0144 131.369C6.87031 129.652 0 135.066 0 142.414V386.085C0 390.555 2.62152 394.609 6.69777 396.444L13.1656 399.354L326.52 231.406L318.97 219.445L312.386 207.041C310.859 204.166 308.173 202.083 305.007 201.322L14.0144 131.369Z" fill="#0891B2"/>
<path d="M670.199 142.451C670.199 135.091 663.308 129.675 656.157 131.413L368.279 201.378C365.279 202.107 362.705 204.026 361.149 206.693L348.238 228.832C347.254 230.52 346.721 232.433 346.692 234.386L343.089 477.148C343.035 480.728 340.118 483.603 336.537 483.603C332.954 483.603 330.036 480.725 329.986 477.143L326.52 231.406L13.1656 399.354L324.466 525.674C325.823 526.224 327.273 526.508 328.737 526.508H344.491C345.974 526.508 347.442 526.217 348.813 525.653L663.162 396.325C667.42 394.573 670.199 390.424 670.199 385.82V142.451Z" fill="#06B6D4"/>
</svg>
