<svg xmlns="http://www.w3.org/2000/svg" xmlns:xlink="http://www.w3.org/1999/xlink" width="2000" zoomAndPan="magnify" viewBox="0 0 1500 1499.999933" height="2000" preserveAspectRatio="xMidYMid meet" version="1.0"><path fill="#03193a" d="M 92.824219 737.894531 L 123.359375 737.894531 L 123.359375 930.273438 L 92.824219 930.273438 Z M 175.207031 879.890625 C 176.222656 889.050781 179.785156 896.175781 185.890625 901.265625 C 192 906.355469 199.378906 908.898438 208.027344 908.898438 C 215.664062 908.898438 222.023438 907.371094 227.113281 904.320312 C 232.371094 901.09375 236.949219 897.109375 240.851562 892.359375 L 262.734375 908.898438 C 255.609375 917.71875 247.636719 923.996094 238.816406 927.730469 C 229.996094 931.460938 220.75 933.328125 211.082031 933.328125 C 201.921875 933.328125 193.269531 931.800781 185.128906 928.746094 C 176.988281 925.695312 169.949219 921.367188 164.011719 915.769531 C 158.074219 910.171875 153.324219 903.46875 149.761719 895.667969 C 146.367188 887.691406 144.671875 878.871094 144.671875 869.203125 C 144.671875 859.53125 146.367188 850.792969 149.761719 842.992188 C 153.324219 835.015625 158.074219 828.230469 164.011719 822.632812 C 169.949219 817.035156 176.988281 812.707031 185.128906 809.65625 C 193.269531 806.601562 201.921875 805.074219 211.082031 805.074219 C 219.5625 805.074219 227.28125 806.601562 234.238281 809.65625 C 241.363281 812.539062 247.382812 816.78125 252.300781 822.378906 C 257.390625 827.976562 261.292969 834.933594 264.007812 843.246094 C 266.890625 851.386719 268.332031 860.804688 268.332031 871.492188 L 268.332031 879.890625 Z M 237.800781 856.988281 C 237.628906 847.996094 234.832031 840.953125 229.402344 835.867188 C 223.972656 830.605469 216.425781 827.976562 206.757812 827.976562 C 197.597656 827.976562 190.304688 830.605469 184.875 835.867188 C 179.617188 841.125 176.394531 848.164062 175.207031 856.988281 Z M 414.949219 808.128906 L 414.949219 919.332031 C 414.949219 930.359375 413.589844 940.285156 410.875 949.105469 C 408.164062 958.097656 403.921875 965.644531 398.15625 971.753906 C 392.558594 978.03125 385.433594 982.867188 376.78125 986.257812 C 368.128906 989.652344 357.867188 991.347656 345.992188 991.347656 C 334.628906 991.347656 323.855469 989.90625 313.679688 987.023438 C 303.5 984.136719 294.085938 978.878906 285.4375 971.246094 L 303.757812 946.304688 C 309.863281 951.90625 316.222656 956.230469 322.839844 959.285156 C 329.453125 962.339844 337.085938 963.863281 345.738281 963.863281 C 353.03125 963.863281 359.140625 962.847656 364.058594 960.8125 C 369.148438 958.777344 373.132812 955.976562 376.019531 952.414062 C 379.070312 948.851562 381.191406 944.523438 382.378906 939.4375 C 383.734375 934.515625 384.414062 929.003906 384.414062 922.894531 L 384.414062 913.988281 L 383.90625 913.988281 C 379.496094 919.925781 373.644531 924.421875 366.347656 927.476562 C 359.054688 930.359375 351.589844 931.800781 343.957031 931.800781 C 334.796875 931.800781 326.484375 930.191406 319.023438 926.964844 C 311.558594 923.574219 305.113281 919.078125 299.683594 913.480469 C 294.425781 907.882812 290.355469 901.265625 287.472656 893.628906 C 284.589844 885.996094 283.144531 877.851562 283.144531 869.203125 C 283.144531 860.210938 284.503906 851.8125 287.21875 844.007812 C 289.929688 836.203125 293.917969 829.417969 299.175781 823.652344 C 304.433594 817.882812 310.710938 813.386719 318.003906 810.164062 C 325.46875 806.769531 333.949219 805.074219 343.449219 805.074219 C 352.101562 805.074219 360.15625 806.769531 367.621094 810.164062 C 375.085938 813.558594 381.023438 818.984375 385.433594 826.449219 L 385.941406 826.449219 L 385.941406 808.128906 Z M 349.808594 832.558594 C 344.382812 832.558594 339.460938 833.492188 335.050781 835.355469 C 330.640625 837.054688 326.824219 839.511719 323.601562 842.734375 C 320.546875 845.789062 318.089844 849.605469 316.222656 854.1875 C 314.527344 858.597656 313.679688 863.519531 313.679688 868.945312 C 313.679688 873.867188 314.527344 878.445312 316.222656 882.6875 C 318.089844 886.929688 320.632812 890.660156 323.855469 893.886719 C 327.078125 897.109375 330.894531 899.652344 335.304688 901.519531 C 339.71875 903.386719 344.464844 904.320312 349.554688 904.320312 C 355.152344 904.320312 360.15625 903.386719 364.566406 901.519531 C 369.148438 899.652344 372.964844 897.191406 376.019531 894.140625 C 379.242188 890.917969 381.699219 887.097656 383.398438 882.6875 C 385.09375 878.277344 385.941406 873.527344 385.941406 868.4375 C 385.941406 857.75 382.71875 849.097656 376.273438 842.480469 C 369.828125 835.867188 361.003906 832.558594 349.808594 832.558594 Z M 518.222656 913.480469 L 517.460938 913.480469 C 513.050781 920.433594 507.453125 925.523438 500.667969 928.746094 C 493.882812 931.800781 486.417969 933.328125 478.277344 933.328125 C 472.679688 933.328125 467.164062 932.566406 461.738281 931.039062 C 456.480469 929.511719 451.730469 927.222656 447.488281 924.167969 C 443.417969 921.113281 440.109375 917.296875 437.566406 912.714844 C 435.019531 908.136719 433.75 902.792969 433.75 896.683594 C 433.75 890.066406 434.9375 884.46875 437.3125 879.890625 C 439.6875 875.140625 442.824219 871.238281 446.726562 868.183594 C 450.796875 864.960938 455.460938 862.414062 460.71875 860.550781 C 465.976562 858.683594 471.40625 857.324219 477.003906 856.476562 C 482.773438 855.460938 488.539062 854.867188 494.304688 854.695312 C 500.074219 854.355469 505.503906 854.1875 510.589844 854.1875 L 518.222656 854.1875 L 518.222656 850.878906 C 518.222656 843.246094 515.59375 837.5625 510.335938 833.828125 C 505.078125 829.929688 498.378906 827.976562 490.234375 827.976562 C 483.789062 827.976562 477.765625 829.164062 472.167969 831.539062 C 466.570312 833.746094 461.738281 836.796875 457.667969 840.699219 L 441.636719 824.667969 C 448.421875 817.714844 456.308594 812.707031 465.300781 809.65625 C 474.460938 806.601562 483.875 805.074219 493.542969 805.074219 C 502.195312 805.074219 509.488281 806.09375 515.425781 808.128906 C 521.363281 809.992188 526.28125 812.453125 530.183594 815.507812 C 534.085938 818.5625 537.054688 822.125 539.089844 826.195312 C 541.292969 830.097656 542.820312 834.085938 543.667969 838.15625 C 544.6875 842.226562 545.28125 846.214844 545.449219 850.117188 C 545.621094 853.847656 545.703125 857.15625 545.703125 860.039062 L 545.703125 930.273438 L 518.222656 930.273438 Z M 516.441406 875.5625 L 510.082031 875.5625 C 505.839844 875.5625 501.089844 875.734375 495.832031 876.070312 C 490.574219 876.410156 485.570312 877.257812 480.820312 878.617188 C 476.242188 879.804688 472.339844 881.671875 469.117188 884.214844 C 465.894531 886.589844 464.28125 889.984375 464.28125 894.394531 C 464.28125 897.277344 464.875 899.738281 466.0625 901.773438 C 467.421875 903.640625 469.117188 905.25 471.152344 906.609375 C 473.1875 907.964844 475.476562 908.984375 478.023438 909.664062 C 480.566406 910.171875 483.109375 910.425781 485.65625 910.425781 C 496.171875 910.425781 503.890625 907.964844 508.808594 903.046875 C 513.898438 897.957031 516.441406 891.085938 516.441406 882.433594 Z M 571.429688 737.894531 L 601.960938 737.894531 L 601.960938 930.273438 L 571.429688 930.273438 Z M 571.429688 737.894531 " fill-opacity="1" fill-rule="nonzero"/><path fill="#26aead" d="M 740.832031 930.273438 L 711.824219 930.273438 L 711.824219 910.679688 L 711.316406 910.679688 C 708.429688 916.789062 704.019531 922.132812 698.082031 926.710938 C 692.148438 931.121094 684.089844 933.328125 673.910156 933.328125 C 665.769531 933.328125 658.816406 932.054688 653.046875 929.511719 C 647.449219 926.796875 642.871094 923.234375 639.308594 918.824219 C 635.746094 914.242188 633.199219 909.070312 631.671875 903.300781 C 630.148438 897.53125 629.382812 891.511719 629.382812 885.234375 L 629.382812 808.128906 L 659.917969 808.128906 L 659.917969 869.964844 C 659.917969 873.359375 660.085938 877.175781 660.425781 881.414062 C 660.765625 885.488281 661.613281 889.390625 662.96875 893.121094 C 664.496094 896.683594 666.703125 899.738281 669.585938 902.28125 C 672.640625 904.65625 676.878906 905.84375 682.308594 905.84375 C 687.398438 905.84375 691.636719 904.996094 695.03125 903.300781 C 698.59375 901.605469 701.476562 899.3125 703.679688 896.429688 C 706.054688 893.546875 707.753906 890.238281 708.769531 886.503906 C 709.789062 882.773438 710.296875 878.871094 710.296875 874.800781 L 710.296875 808.128906 L 740.832031 808.128906 Z M 767.859375 808.128906 L 796.863281 808.128906 L 796.863281 827.722656 L 797.375 827.722656 C 800.257812 821.613281 804.667969 816.355469 810.605469 811.945312 C 816.542969 807.363281 824.597656 805.074219 834.777344 805.074219 C 842.917969 805.074219 849.789062 806.429688 855.386719 809.144531 C 861.15625 811.859375 865.820312 815.421875 869.382812 819.832031 C 872.945312 824.246094 875.488281 829.335938 877.015625 835.101562 C 878.542969 840.871094 879.304688 846.890625 879.304688 853.167969 L 879.304688 930.273438 L 848.773438 930.273438 L 848.773438 868.4375 C 848.773438 865.042969 848.601562 861.3125 848.261719 857.242188 C 847.921875 853 846.992188 849.097656 845.464844 845.535156 C 844.105469 841.804688 841.902344 838.75 838.847656 836.375 C 835.796875 833.828125 831.640625 832.558594 826.378906 832.558594 C 821.292969 832.558594 816.964844 833.40625 813.402344 835.101562 C 810.011719 836.796875 807.128906 839.089844 804.753906 841.972656 C 802.546875 844.855469 800.9375 848.164062 799.917969 851.898438 C 798.902344 855.628906 798.390625 859.53125 798.390625 863.601562 L 798.390625 930.273438 L 767.859375 930.273438 Z M 906.332031 808.128906 L 935.335938 808.128906 L 935.335938 826.449219 L 935.847656 826.449219 C 940.257812 818.984375 946.195312 813.558594 953.65625 810.164062 C 961.121094 806.769531 969.179688 805.074219 977.828125 805.074219 C 987.160156 805.074219 995.554688 806.769531 1003.019531 810.164062 C 1010.484375 813.386719 1016.84375 817.882812 1022.101562 823.652344 C 1027.363281 829.417969 1031.347656 836.203125 1034.0625 844.007812 C 1036.777344 851.8125 1038.132812 860.210938 1038.132812 869.203125 C 1038.132812 878.191406 1036.691406 886.589844 1033.808594 894.394531 C 1030.921875 902.199219 1026.851562 908.984375 1021.59375 914.75 C 1016.503906 920.519531 1010.3125 925.101562 1003.019531 928.492188 C 995.726562 931.714844 987.753906 933.328125 979.101562 933.328125 C 973.335938 933.328125 968.246094 932.734375 963.835938 931.546875 C 959.425781 930.359375 955.523438 928.832031 952.128906 926.964844 C 948.738281 925.101562 945.855469 923.148438 943.480469 921.113281 C 941.105469 918.90625 939.152344 916.789062 937.628906 914.75 L 936.863281 914.75 L 936.863281 988.292969 L 906.332031 988.292969 Z M 1007.597656 869.203125 C 1007.597656 864.449219 1006.75 859.871094 1005.054688 855.460938 C 1003.527344 851.050781 1001.152344 847.148438 997.929688 843.753906 C 994.878906 840.359375 991.144531 837.648438 986.734375 835.609375 C 982.324219 833.574219 977.320312 832.558594 971.722656 832.558594 C 966.125 832.558594 961.121094 833.574219 956.710938 835.609375 C 952.300781 837.648438 948.484375 840.359375 945.261719 843.753906 C 942.207031 847.148438 939.832031 851.050781 938.136719 855.460938 C 936.609375 859.871094 935.847656 864.449219 935.847656 869.203125 C 935.847656 873.953125 936.609375 878.53125 938.136719 882.941406 C 939.832031 887.355469 942.207031 891.253906 945.261719 894.648438 C 948.484375 898.042969 952.300781 900.753906 956.710938 902.792969 C 961.121094 904.828125 966.125 905.84375 971.722656 905.84375 C 977.320312 905.84375 982.324219 904.828125 986.734375 902.792969 C 991.144531 900.753906 994.878906 898.042969 997.929688 894.648438 C 1001.152344 891.253906 1003.527344 887.355469 1005.054688 882.941406 C 1006.75 878.53125 1007.597656 873.953125 1007.597656 869.203125 Z M 1135.300781 913.480469 L 1134.539062 913.480469 C 1130.128906 920.433594 1124.53125 925.523438 1117.746094 928.746094 C 1110.960938 931.800781 1103.496094 933.328125 1095.355469 933.328125 C 1089.757812 933.328125 1084.242188 932.566406 1078.816406 931.039062 C 1073.558594 929.511719 1068.808594 927.222656 1064.566406 924.167969 C 1060.496094 921.113281 1057.1875 917.296875 1054.644531 912.714844 C 1052.097656 908.136719 1050.828125 902.792969 1050.828125 896.683594 C 1050.828125 890.066406 1052.015625 884.46875 1054.390625 879.890625 C 1056.765625 875.140625 1059.902344 871.238281 1063.804688 868.183594 C 1067.875 864.960938 1072.539062 862.414062 1077.796875 860.550781 C 1083.058594 858.683594 1088.484375 857.324219 1094.082031 856.476562 C 1099.851562 855.460938 1105.617188 854.867188 1111.386719 854.695312 C 1117.152344 854.355469 1122.582031 854.1875 1127.667969 854.1875 L 1135.300781 854.1875 L 1135.300781 850.878906 C 1135.300781 843.246094 1132.671875 837.5625 1127.414062 833.828125 C 1122.15625 829.929688 1115.457031 827.976562 1107.3125 827.976562 C 1100.867188 827.976562 1094.847656 829.164062 1089.25 831.539062 C 1083.648438 833.746094 1078.816406 836.796875 1074.746094 840.699219 L 1058.714844 824.667969 C 1065.5 817.714844 1073.386719 812.707031 1082.378906 809.65625 C 1091.539062 806.601562 1100.953125 805.074219 1110.621094 805.074219 C 1119.273438 805.074219 1126.566406 806.09375 1132.503906 808.128906 C 1138.441406 809.992188 1143.359375 812.453125 1147.261719 815.507812 C 1151.164062 818.5625 1154.132812 822.125 1156.167969 826.195312 C 1158.371094 830.097656 1159.898438 834.085938 1160.746094 838.15625 C 1161.765625 842.226562 1162.359375 846.214844 1162.527344 850.117188 C 1162.699219 853.847656 1162.78125 857.15625 1162.78125 860.039062 L 1162.78125 930.273438 L 1135.300781 930.273438 Z M 1133.523438 875.5625 L 1127.160156 875.5625 C 1122.917969 875.5625 1118.171875 875.734375 1112.910156 876.070312 C 1107.652344 876.410156 1102.648438 877.257812 1097.898438 878.617188 C 1093.320312 879.804688 1089.417969 881.671875 1086.195312 884.214844 C 1082.972656 886.589844 1081.359375 889.984375 1081.359375 894.394531 C 1081.359375 897.277344 1081.953125 899.738281 1083.140625 901.773438 C 1084.5 903.640625 1086.195312 905.25 1088.230469 906.609375 C 1090.265625 907.964844 1092.554688 908.984375 1095.101562 909.664062 C 1097.644531 910.171875 1100.1875 910.425781 1102.734375 910.425781 C 1113.25 910.425781 1120.96875 907.964844 1125.886719 903.046875 C 1130.976562 897.957031 1133.523438 891.085938 1133.523438 882.433594 Z M 1271.457031 844.773438 C 1267.898438 841.039062 1264.164062 838.070312 1260.261719 835.867188 C 1256.363281 833.660156 1252.375 832.558594 1248.304688 832.558594 C 1242.707031 832.558594 1237.703125 833.574219 1233.292969 835.609375 C 1228.882812 837.648438 1225.066406 840.359375 1221.84375 843.753906 C 1218.789062 847.148438 1216.414062 851.050781 1214.71875 855.460938 C 1213.191406 859.871094 1212.429688 864.449219 1212.429688 869.203125 C 1212.429688 873.953125 1213.191406 878.53125 1214.71875 882.941406 C 1216.414062 887.355469 1218.789062 891.253906 1221.84375 894.648438 C 1225.066406 898.042969 1228.882812 900.753906 1233.292969 902.792969 C 1237.703125 904.828125 1242.707031 905.84375 1248.304688 905.84375 C 1253.054688 905.84375 1257.464844 904.914062 1261.535156 903.046875 C 1265.605469 901.011719 1269.085938 898.125 1271.96875 894.394531 L 1292.324219 916.277344 C 1289.269531 919.332031 1285.707031 921.960938 1281.636719 924.167969 C 1277.734375 926.371094 1273.75 928.152344 1269.679688 929.511719 C 1265.605469 930.867188 1261.707031 931.800781 1257.972656 932.308594 C 1254.242188 932.988281 1251.019531 933.328125 1248.304688 933.328125 C 1239.144531 933.328125 1230.492188 931.800781 1222.351562 928.746094 C 1214.207031 925.695312 1207.167969 921.367188 1201.230469 915.769531 C 1195.296875 910.171875 1190.546875 903.46875 1186.984375 895.667969 C 1183.589844 887.691406 1181.894531 878.871094 1181.894531 869.203125 C 1181.894531 859.53125 1183.589844 850.792969 1186.984375 842.992188 C 1190.546875 835.015625 1195.296875 828.230469 1201.230469 822.632812 C 1207.167969 817.035156 1214.207031 812.707031 1222.351562 809.65625 C 1230.492188 806.601562 1239.144531 805.074219 1248.304688 805.074219 C 1256.109375 805.074219 1263.910156 806.601562 1271.714844 809.65625 C 1279.6875 812.539062 1286.640625 817.203125 1292.578125 823.652344 Z M 1303.117188 737.894531 L 1333.648438 737.894531 L 1333.648438 858.769531 L 1380.722656 808.128906 L 1419.90625 808.128906 L 1367.492188 863.601562 L 1423.214844 930.273438 L 1382.757812 930.273438 L 1334.160156 867.929688 L 1333.648438 867.929688 L 1333.648438 930.273438 L 1303.117188 930.273438 Z M 1303.117188 737.894531 " fill-opacity="1" fill-rule="nonzero"/><path fill="#10899e" d="M 529.566406 478.324219 C 523.636719 476.898438 517.9375 481.390625 517.9375 487.488281 L 517.9375 622.617188 C 517.9375 626.320312 520.109375 629.683594 523.488281 631.207031 L 527.007812 632.792969 L 742.910156 546.90625 L 737.707031 538.648438 L 733.507812 530.71875 C 732.242188 528.332031 730.015625 526.601562 727.386719 525.96875 Z M 529.566406 478.324219 " fill-opacity="1" fill-rule="nonzero"/><path fill="#26aead" d="M 979.707031 487.519531 C 979.707031 481.410156 973.988281 476.917969 968.054688 478.359375 L 772.34375 526.015625 C 769.855469 526.621094 767.71875 528.21875 766.429688 530.433594 L 758.074219 544.785156 C 757.265625 546.175781 756.824219 547.75 756.796875 549.359375 L 754.339844 686.503906 C 754.296875 688.972656 752.28125 690.953125 749.8125 690.953125 C 747.34375 690.953125 745.328125 688.972656 745.285156 686.5 L 742.910156 546.90625 L 527.007812 632.792969 L 741.207031 719.878906 C 742.332031 720.335938 743.535156 720.570312 744.753906 720.570312 L 755.03125 720.570312 C 756.226562 720.570312 757.410156 720.34375 758.523438 719.902344 L 973.773438 634.082031 C 977.355469 632.65625 979.707031 629.1875 979.707031 625.328125 Z M 979.707031 487.519531 " fill-opacity="1" fill-rule="nonzero"/></svg>