<svg width="196" height="103" viewBox="0 0 196 103" fill="none" xmlns="http://www.w3.org/2000/svg">
<path d="M4.93653 0.113045C2.42045 -0.492896 0 1.41385 0 4.00187V61.3512C0 62.9242 0.921992 64.3512 2.35605 64.9977L3.85029 65.6714L95.4909 29.2197L93.2829 25.7154L91.4997 22.3501C90.9628 21.3368 90.0167 20.6027 88.9018 20.3342L4.93653 0.113045Z" fill="#10899E"/>
<path d="M196 4.01494C196 1.4228 193.572 -0.484727 191.054 0.128476L107.984 20.3537C106.927 20.611 106.021 21.2877 105.474 22.2277L101.927 28.3199C101.584 28.9099 101.397 29.5781 101.385 30.2607L100.342 88.4666C100.323 89.5145 99.4686 90.3541 98.4205 90.3541C97.3718 90.3541 96.5168 89.5135 96.4989 88.4649L95.4909 29.2197L3.85029 65.6714L94.7665 102.63C95.2449 102.824 95.7565 102.924 96.2729 102.924H100.635C101.143 102.924 101.645 102.828 102.117 102.64L193.481 66.218C195.002 65.6117 196 64.1397 196 62.5024V4.01494Z" fill="#26AEAD"/>
</svg>
